<?xml version="1.0" standalone="no"?>
<!DOCTYPE svg PUBLIC "-//W3C//DTD SVG 1.1//EN" "http://www.w3.org/Graphics/SVG/1.1/DTD/svg11.dtd" >
<svg xmlns="http://www.w3.org/2000/svg" xmlns:xlink="http://www.w3.org/1999/xlink" version="1.1">
<metadata></metadata>
<defs>
<font id="futuramedium" horiz-adv-x="1204" >
<font-face units-per-em="2048" ascent="1638" descent="-410" />
<missing-glyph horiz-adv-x="618" />
<glyph horiz-adv-x="0" />
<glyph horiz-adv-x="682" />
<glyph unicode=" "  horiz-adv-x="618" />
<glyph unicode="&#x09;" horiz-adv-x="618" />
<glyph unicode="&#xa0;" horiz-adv-x="618" />
<glyph unicode="!" horiz-adv-x="673" d="M205 92q0 54 38.5 92.5t92.5 38.5q56 0 93.5 -37.5t37.5 -93.5q0 -54 -38 -92.5t-93 -38.5t-93 38.5t-38 92.5zM223 336v1161h228v-1161h-228z" />
<glyph unicode="&#x22;" horiz-adv-x="643" d="M86 879v557h164v-557h-164zM395 879v557h164v-557h-164z" />
<glyph unicode="#" horiz-adv-x="1574" d="M70 428l61 172h297l90 252h-315l61 172h316l155 436h191l-154 -436h250l156 436h190l-154 -436h291l-59 -172h-293l-90 -252h309l-61 -172h-307l-156 -434h-191l156 434h-252l-158 -434h-190l156 434h-299zM618 598h256l91 254h-256z" />
<glyph unicode="$" horiz-adv-x="1236" d="M137 317l189 84q49 -171 241 -192v457q-202 83 -296.5 182.5t-94.5 238.5q0 158 103 261.5t288 126.5v112h105v-114q287 -24 366 -232l-184 -92q-65 105 -182 125v-402q114 -54 185 -96.5t126 -94.5t78.5 -112.5t23.5 -138.5q0 -180 -107 -291.5t-306 -136.5v-170h-105 v166q-359 24 -430 319zM428 1102q0 -63 33.5 -109t105.5 -84v359q-73 -22 -106 -61t-33 -105zM672 215q168 44 168 201q0 67 -40.5 116t-127.5 91v-408z" />
<glyph unicode="%" horiz-adv-x="1622" d="M57 1094q0 182 87 283.5t241 101.5q155 0 240.5 -100t85.5 -285q0 -183 -86 -284t-240 -101q-155 0 -241.5 100.5t-86.5 284.5zM238 1092q0 -130 38 -198.5t107 -68.5q147 0 147 269q0 130 -37 199t-106 69q-149 0 -149 -270zM317 -39l854 1518h138l-854 -1518h-138z M913 348q0 182 87 283.5t241 101.5q155 0 240.5 -100t85.5 -285q0 -183 -87 -285t-241 -102t-240 102t-86 285zM1092 346q0 -130 37.5 -198t107.5 -68q149 0 149 268q0 130 -37.5 198t-107.5 68q-149 0 -149 -268z" />
<glyph unicode="&#x26;" horiz-adv-x="1374" d="M61 383q0 128 79.5 233t246.5 209l-59 64q-101 110 -101 244q0 142 105 235.5t272 93.5t263 -84.5t96 -224.5q0 -110 -69.5 -198t-215.5 -173l305 -354q88 88 188 229l140 -149q-78 -124 -195 -229l246 -279h-275l-118 139q-200 -174 -453 -174q-203 0 -329 118t-126 300 zM289 389q0 -96 67.5 -163.5t169.5 -67.5q150 0 308 137l-320 369l-37 -25q-97 -63 -142.5 -119.5t-45.5 -130.5zM451 1137q0 -62 47 -115l73 -88l54 31q112 66 112 174q0 63 -38.5 102t-98.5 39q-67 0 -108 -40t-41 -103z" />
<glyph unicode="'" horiz-adv-x="333" d="M86 879v557h164v-557h-164z" />
<glyph unicode="(" horiz-adv-x="620" d="M168 539q0 568 238 993l163 -49q-211 -418 -211 -942q0 -551 211 -934l-163 -53q-238 441 -238 985z" />
<glyph unicode=")" horiz-adv-x="620" d="M45 -393q211 383 211 934q0 524 -211 942l162 49q237 -423 237 -993q0 -546 -237 -985z" />
<glyph unicode="*" horiz-adv-x="901" d="M106 989l226 115l-226 133l72 123l211 -135l-12 239h145l-14 -241l215 137l72 -123l-232 -127l232 -121l-76 -121l-211 140l14 -246h-145l10 244l-209 -138z" />
<glyph unicode="+" horiz-adv-x="1705" d="M254 528v166h514v527h170v-527h514v-166h-514v-528h-170v528h-514z" />
<glyph unicode="," horiz-adv-x="618" d="M115 -309l194 557l195 -72l-260 -536z" />
<glyph unicode="-" horiz-adv-x="829" d="M147 371v200h535v-200h-535z" />
<glyph unicode="." horiz-adv-x="618" d="M178 111q0 56 38 94.5t93 38.5t93 -38.5t38 -94.5q0 -54 -38 -91.5t-93 -37.5t-93 37.5t-38 91.5z" />
<glyph unicode="/" horiz-adv-x="886" d="M0 -190l717 1687h170l-717 -1687h-170z" />
<glyph unicode="0" horiz-adv-x="1236" d="M92 721q0 360 140.5 559t388.5 199q251 0 387.5 -199t136.5 -575q0 -351 -141 -547.5t-386 -196.5q-248 0 -387 198.5t-139 561.5zM330 719q0 -268 74 -410.5t210 -142.5q293 0 293 557q0 271 -73 412t-211 141q-145 0 -219 -140.5t-74 -416.5z" />
<glyph unicode="1" horiz-adv-x="1236" d="M238 1262l92 188h428v-1450h-217v1262h-303z" />
<glyph unicode="2" horiz-adv-x="1236" d="M43 0l547 655q196 237 196 385q0 108 -64 171t-177 63q-100 0 -165.5 -62t-72.5 -165h-229q0 197 131.5 314.5t355.5 117.5q212 0 334.5 -109t122.5 -297q0 -83 -24 -161.5t-79.5 -165t-111.5 -157t-154 -183.5l-186 -216h557v-190h-981z" />
<glyph unicode="3" horiz-adv-x="1236" d="M94 391h228v-12q0 -100 69 -160.5t187 -60.5q134 0 206 67t72 191q0 264 -297 264q-7 0 -22 -1t-23 -1v192q7 0 21.5 -1t21.5 -1q262 0 262 215q0 94 -59.5 149.5t-159.5 55.5q-107 0 -167.5 -51t-63.5 -145h-215q11 187 126.5 287t325.5 100q202 0 319 -105t117 -284 q0 -134 -66 -220.5t-185 -105.5q138 -25 211 -121.5t73 -257.5q0 -193 -135.5 -308.5t-370.5 -115.5q-211 0 -340 116t-135 314z" />
<glyph unicode="4" horiz-adv-x="1236" d="M27 297l852 1182h67v-1016h178v-166h-178v-297h-217v297h-702zM362 463h367v381q0 61 6 145z" />
<glyph unicode="5" horiz-adv-x="1236" d="M78 176l158 174q52 -95 132 -144.5t177 -49.5q145 0 235 92t90 244q0 145 -94.5 236t-247.5 91q-187 0 -309 -125l-59 13l182 743h692v-193h-549l-86 -323q116 49 228 49q209 0 340 -134t131 -349q0 -245 -152 -392t-411 -147q-298 0 -457 215z" />
<glyph unicode="6" horiz-adv-x="1236" d="M113 451q0 85 22 166.5t72 172t97.5 161.5t130.5 187l24 33l256 363l182 -92l-424 -553q96 47 191 47q195 0 322.5 -132t127.5 -341q0 -226 -142.5 -364t-375.5 -138q-219 0 -351 135.5t-132 354.5zM340 449q0 -132 73.5 -211.5t188.5 -79.5q131 0 206 78.5t75 212.5 q0 137 -73.5 214.5t-205.5 77.5q-117 0 -190.5 -81t-73.5 -211z" />
<glyph unicode="7" horiz-adv-x="1236" d="M150 1262v188h1009l-737 -1505l-193 86l598 1231h-677z" />
<glyph unicode="8" horiz-adv-x="1236" d="M115 389q0 143 68 244t192 141q-108 46 -159.5 122t-51.5 191q0 174 122.5 283t329.5 109q210 0 332.5 -110t122.5 -292q0 -109 -54 -186t-157 -117q121 -40 190.5 -141.5t69.5 -239.5q0 -200 -132.5 -316t-371.5 -116q-236 0 -368.5 116t-132.5 312zM344 410 q0 -118 71.5 -186t200.5 -68q130 0 202.5 68t72.5 186q0 120 -73 188t-202 68q-127 0 -199.5 -68.5t-72.5 -187.5zM397 1083q0 -91 57.5 -143.5t161.5 -52.5q106 0 164 52t58 144q0 94 -57.5 148.5t-159.5 54.5q-104 0 -164 -55t-60 -148z" />
<glyph unicode="9" horiz-adv-x="1236" d="M104 977q0 226 143 364t376 138q219 0 352 -134.5t133 -353.5q0 -85 -22.5 -168t-72 -172t-99 -163t-130.5 -188q-15 -20 -22 -30l-258 -362l-180 92l421 551q-91 -45 -190 -45q-195 0 -323 131t-128 340zM336 993q0 -137 73.5 -216t204.5 -79q117 0 191 82.5t74 212.5 q0 132 -73 211.5t-188 79.5q-131 0 -206.5 -78.5t-75.5 -212.5z" />
<glyph unicode=":" horiz-adv-x="673" d="M205 111q0 54 38.5 92.5t92.5 38.5q56 0 93.5 -38t37.5 -93q0 -54 -38 -91.5t-93 -37.5t-93 37.5t-38 91.5zM205 795q0 54 38.5 91.5t92.5 37.5q56 0 93.5 -37t37.5 -92q0 -54 -38 -92.5t-93 -38.5t-93 38.5t-38 92.5z" />
<glyph unicode=";" horiz-adv-x="673" d="M119 -309l196 557l195 -72l-260 -536zM293 795q0 54 37.5 91.5t91.5 37.5q56 0 93.5 -37t37.5 -92q0 -54 -38 -92.5t-93 -38.5t-92 38t-37 93z" />
<glyph unicode="&#x3c;" horiz-adv-x="1705" d="M264 530v160l1178 486v-185l-934 -381l934 -381v-182z" />
<glyph unicode="=" horiz-adv-x="1705" d="M254 322v165h1198v-165h-1198zM254 733v168h1198v-168h-1198z" />
<glyph unicode="&#x3e;" horiz-adv-x="1705" d="M264 47v182l934 381l-934 381v185l1178 -486v-160z" />
<glyph unicode="?" horiz-adv-x="1114" d="M207 1153q0 158 95.5 252t254.5 94q163 0 259.5 -94t96.5 -250q0 -66 -17 -116t-55.5 -90.5t-85.5 -70.5t-122 -67q-126 -63 -157 -87q-63 -47 -64 -110q0 -50 38.5 -87.5t94.5 -37.5q67 0 103 40.5t38 115.5h178v-20q0 -148 -83 -229t-236 -81q-143 0 -234.5 84 t-91.5 211q0 68 19 120.5t62 95.5t95 75.5t135 71.5q54 26 83 41.5t58.5 38.5t41.5 49.5t12 60.5q0 66 -47.5 110t-120.5 44q-82 0 -129 -53t-47 -148h-172q0 6 -1 18.5t-1 18.5zM397 92q0 54 38.5 92.5t92.5 38.5q56 0 93.5 -37.5t37.5 -93.5q0 -54 -38 -92.5t-93 -38.5 t-93 38.5t-38 92.5z" />
<glyph unicode="@" horiz-adv-x="2048" d="M98 522q0 333 205 586q147 179 353 272t460 93q168 0 316.5 -46t253.5 -127q264 -203 264 -536q0 -163 -65 -302.5t-185 -236.5q-139 -112 -318 -112q-106 0 -157 40.5t-51 125.5v4q-55 -87 -128.5 -127.5t-175.5 -40.5q-152 0 -232.5 86.5t-80.5 249.5q0 156 64.5 284.5 t172.5 200.5t234 72q173 0 248 -142l55 107h154l-148 -586q-8 -40 -8 -49q0 -38 26.5 -61t69.5 -23q49 0 105.5 29.5t107.5 85.5q71 76 109.5 177t38.5 216q0 251 -185.5 410t-490.5 159q-276 0 -471 -125q-182 -114 -279.5 -291.5t-97.5 -394.5q0 -312 209.5 -499 t558.5 -187q167 0 325 49t290 142l67 -99q-300 -227 -674 -227q-386 0 -632 190q-308 235 -308 633zM741 444q0 -99 45 -151.5t129 -52.5q89 0 163 66t100 173l55 228q-13 85 -61 130.5t-123 45.5q-127 0 -217.5 -128.5t-90.5 -310.5z" />
<glyph unicode="A" horiz-adv-x="1355" d="M-31 0l709 1522l708 -1522h-251l-166 377h-580l-170 -377h-250zM477 575h408l-150 334q-30 72 -55 166q-22 -90 -53 -166z" />
<glyph unicode="B" horiz-adv-x="1179" d="M168 0v1464h369q138 0 219 -13t143 -60q68 -50 105.5 -131t37.5 -179q0 -117 -54 -195.5t-157 -109.5q128 -20 201.5 -116.5t73.5 -243.5q0 -90 -31.5 -169.5t-87.5 -135.5q-71 -71 -169.5 -91t-278.5 -20h-371zM401 199h82q112 0 178.5 9t106.5 36q92 63 92 186 q0 144 -112 203q-63 33 -193 33h-154v-467zM401 846h91q165 0 238 45t73 158q0 68 -18 111t-59.5 66t-95 31.5t-138.5 8.5h-91v-420z" />
<glyph unicode="C" horiz-adv-x="1470" d="M104 729q0 161 57.5 302.5t166.5 248.5q222 219 555 219q257 0 473 -151l-13 -240q-202 172 -450 172q-241 0 -391 -154t-150 -399q0 -239 147 -392t369 -153q258 0 473 185v-269q-192 -137 -454 -137q-341 0 -561 217q-107 106 -164.5 248.5t-57.5 302.5z" />
<glyph unicode="D" horiz-adv-x="1515" d="M168 0v1464h321q107 0 160 -1t138 -8t137.5 -20.5t114.5 -40.5t114 -67q126 -97 192 -248.5t66 -347.5q0 -396 -258 -594q-61 -47 -128 -76t-150 -41.5t-148.5 -16t-173.5 -3.5h-385zM406 215h200q143 0 231.5 18t159.5 78q166 141 166 422t-166 422q-74 61 -168 78.5 t-251 17.5h-172v-1036z" />
<glyph unicode="E" horiz-adv-x="1089" d="M168 0v1464h817v-202h-579v-367h579v-209h-579v-473h579v-213h-817z" />
<glyph unicode="F" horiz-adv-x="1075" d="M168 0v1464h817v-202h-579v-365h579v-209h-579v-688h-238z" />
<glyph unicode="G" horiz-adv-x="1644" d="M104 729q0 335 224 553q107 104 251 159.5t308 55.5q343 0 553 -256l-174 -131q-145 170 -375 170q-237 0 -388 -151.5t-151 -397.5q0 -249 151 -403t390 -154q205 0 321.5 95t116.5 259v21h-352v201h580q4 -118 4 -138q0 -311 -177.5 -481t-498.5 -170q-358 0 -568 213 q-104 106 -159.5 249t-55.5 306z" />
<glyph unicode="H" horiz-adv-x="1531" d="M168 0v1464h238v-540h720v540h238v-1464h-238v711h-720v-711h-238z" />
<glyph unicode="I" horiz-adv-x="583" d="M172 0v1464h238v-1464h-238z" />
<glyph unicode="J" horiz-adv-x="806" d="M4 113l152 153q72 -84 143 -84q75 0 101 51t26 166v1065h236v-1142q0 -185 -81 -273t-257 -88q-186 0 -320 152z" />
<glyph unicode="K" horiz-adv-x="1269" d="M168 0v1464h238v-606l526 606h291l-580 -651l649 -813h-307l-579 748v-748h-238z" />
<glyph unicode="L" horiz-adv-x="962" d="M168 0v1464h238v-1251h532v-213h-770z" />
<glyph unicode="M" horiz-adv-x="1767" d="M27 0l346 1522l432 -920q23 -53 80 -199q21 59 84 199l422 920l354 -1522h-221l-162 723q-3 13 -27 201q-17 -100 -67 -203l-383 -780l-383 796q-47 96 -72 187q-2 -87 -27 -203l-157 -721h-219z" />
<glyph unicode="N" horiz-adv-x="1644" d="M168 0v1522l930 -895q72 -69 159 -178v1015h220v-1521l-949 911q-75 72 -141 164v-1018h-219z" />
<glyph unicode="O" horiz-adv-x="1773" d="M104 729q0 322 228 545q113 109 255 166t300 57q322 0 553 -223q112 -110 170.5 -249.5t58.5 -295.5q0 -157 -58.5 -295.5t-170.5 -247.5q-113 -109 -255 -167t-298 -58q-157 0 -301 58t-254 167q-228 220 -228 543zM352 729q0 -228 156 -387q157 -160 379 -160 q220 0 377 160t157 387q0 229 -157 389q-74 77 -172.5 118.5t-204.5 41.5t-204.5 -41t-174.5 -119q-156 -159 -156 -389z" />
<glyph unicode="P" horiz-adv-x="1089" d="M168 0v1464h360q69 0 109.5 -2t91.5 -8.5t91 -22.5t75 -42q68 -50 107.5 -136.5t39.5 -191.5t-39.5 -192.5t-107.5 -137.5q-67 -48 -149 -61t-218 -13h-137v-657h-223zM406 852h61q71 0 119 4t91 15.5t67.5 33t38.5 57t14 85.5q0 126 -76.5 169.5t-253.5 43.5h-61v-408z " />
<glyph unicode="Q" horiz-adv-x="1773" d="M104 731q0 156 58 295.5t170 247.5q110 108 253 165.5t302 57.5t301 -57t252 -166q112 -108 170.5 -247.5t58.5 -295.5q0 -152 -57 -288.5t-164 -243.5l311 -336h-284l-191 207q-194 -105 -410 -105q-149 0 -291.5 58t-250.5 165q-112 108 -170 247.5t-58 295.5zM352 731 q0 -112 41 -212.5t112.5 -173.5t172.5 -116t215 -43q119 0 231 56l-262 282h289l141 -151q129 160 129 358q0 229 -155 387q-76 78 -174.5 120t-204.5 42t-204.5 -42t-174.5 -120q-156 -159 -156 -387z" />
<glyph unicode="R" horiz-adv-x="1146" d="M168 0v1464h332q132 0 216.5 -16.5t147.5 -65.5q67 -53 104.5 -136.5t37.5 -184.5q0 -354 -336 -395l504 -666h-269l-487 655h-27v-655h-223zM406 840h43q69 0 114 4t86 16t64 34t36 58t13 88q0 129 -72 174.5t-241 45.5h-43v-420z" />
<glyph unicode="S" horiz-adv-x="1124" d="M84 293l190 88q26 -98 98.5 -149.5t184.5 -51.5q107 0 169 59t62 158q0 24 -3.5 44t-12.5 37.5t-17 30.5t-26 27.5t-29 23.5t-37.5 23t-40 20.5t-46.5 22.5t-48 23q-86 42 -143 74.5t-110.5 73.5t-83.5 83t-48 96.5t-18 119.5q0 178 121 289.5t319 111.5q162 0 271.5 -63 t150.5 -179l-186 -96q-84 133 -217 133q-96 0 -152.5 -50t-56.5 -134q0 -48 15 -83t56.5 -66t72 -47t104.5 -50l10 -5t9.5 -4.5t10.5 -4.5q204 -94 291.5 -188t87.5 -246q0 -206 -130 -329.5t-355 -123.5q-187 0 -306.5 86t-156.5 246z" />
<glyph unicode="T" horiz-adv-x="1042" d="M14 1262v202h1014v-202h-387v-1262h-238v1262h-389z" />
<glyph unicode="U" horiz-adv-x="1523" d="M162 553v911h235v-889q0 -397 365 -397q364 0 364 397v889h238v-911q0 -592 -602 -592q-600 0 -600 592z" />
<glyph unicode="V" horiz-adv-x="1265" d="M-20 1464h247l328 -780q57 -134 78 -235q25 107 80 235l327 780h246l-653 -1521z" />
<glyph unicode="W" horiz-adv-x="1923" d="M-6 1464h235l277 -739q48 -129 78 -231q19 62 37 116.5t30 89t13 39.5l294 783l310 -797q42 -108 78 -233q21 91 71 227l275 745h237l-567 -1521l-334 835q-46 115 -72 205q-33 -117 -69 -209l-328 -831z" />
<glyph unicode="X" horiz-adv-x="1171" d="M0 0l475 766l-420 698h250l211 -358q15 -25 78 -145q37 72 80 143l223 360h244l-428 -694l461 -770h-263l-245 416q-3 6 -29.5 55.5t-48.5 91.5q-30 -65 -80 -145l-256 -418h-252z" />
<glyph unicode="Y" horiz-adv-x="1214" d="M-10 1464h250l307 -497q22 -37 61 -117q26 69 62 123l315 491h238l-504 -794v-670h-236v670z" />
<glyph unicode="Z" horiz-adv-x="1179" d="M18 0l746 1262h-621v202h987l-739 -1251h748v-213h-1121z" />
<glyph unicode="[" horiz-adv-x="620" d="M199 -414v1911h381v-156h-191v-1597h191v-158h-381z" />
<glyph unicode="\" horiz-adv-x="886" d="M0 1497h170l717 -1687h-170z" />
<glyph unicode="]" horiz-adv-x="620" d="M43 -256h188v1597h-188v156h379v-1911h-379v158z" />
<glyph unicode="^" horiz-adv-x="2048" d="M418 899l497 561h218l495 -561h-207l-397 397l-399 -397h-207z" />
<glyph unicode="_" horiz-adv-x="1024" d="M0 -311h1024v-172h-1024v172z" />
<glyph unicode="`" horiz-adv-x="1024" d="M238 1364h225l190 -272h-123z" />
<glyph unicode="a" horiz-adv-x="1191" d="M80 475q0 227 118.5 366.5t307.5 139.5q117 0 199 -48.5t120 -139.5v155h217v-948h-217v123q-116 -162 -313 -162q-200 0 -316 136.5t-116 377.5zM307 469q0 -151 68 -233t192 -82q115 0 189.5 87.5t74.5 235.5t-69 229.5t-191 81.5q-123 0 -193.5 -84.5t-70.5 -234.5z " />
<glyph unicode="b" horiz-adv-x="1191" d="M150 0v1550h217v-757q38 91 121 139.5t200 48.5q188 0 306 -139t118 -367q0 -241 -116 -377.5t-316 -136.5q-197 0 -313 162v-123h-217zM360 477q0 -148 75 -235.5t192 -87.5q123 0 190.5 81.5t67.5 233.5q0 150 -70.5 234.5t-193.5 84.5q-122 0 -191.5 -81.5 t-69.5 -229.5z" />
<glyph unicode="c" horiz-adv-x="929" d="M80 471q0 228 145.5 369t380.5 141q146 0 252 -59v-244q-104 113 -260 113q-132 0 -212.5 -86t-80.5 -228q0 -149 81 -233t222 -84q156 0 250 119v-250q-121 -68 -274 -68q-223 0 -363.5 142t-140.5 368z" />
<glyph unicode="d" horiz-adv-x="1191" d="M80 475q0 227 118.5 366.5t307.5 139.5q117 0 199 -48.5t120 -139.5v757h217v-1550h-217v123q-116 -162 -313 -162q-200 0 -316 136.5t-116 377.5zM307 469q0 -151 68 -233t192 -82q116 0 190 87.5t74 235.5t-69 229.5t-191 81.5q-123 0 -193.5 -84.5t-70.5 -234.5z" />
<glyph unicode="e" horiz-adv-x="1138" d="M80 471q0 223 139 366.5t359 143.5q229 0 357 -131t128 -367v-41h-758q7 -133 78 -207.5t190 -74.5q104 0 174.5 44t122.5 142l183 -102q-158 -283 -475 -283q-227 0 -362.5 139t-135.5 371zM319 588h519q-12 102 -77.5 155.5t-178.5 53.5q-211 0 -263 -209z" />
<glyph unicode="f" horiz-adv-x="626" d="M14 758v190h166v254q0 188 78.5 278.5t243.5 90.5q68 0 147 -21v-196q-52 30 -106 30q-80 0 -113 -49.5t-33 -160.5v-226h228v-190h-228v-758h-217v758h-166z" />
<glyph unicode="g" horiz-adv-x="1191" d="M80 475q0 227 118.5 366.5t307.5 139.5q117 0 199 -48.5t120 -139.5v155h217v-889q0 -136 -24 -228.5t-81 -156t-149.5 -92t-230.5 -28.5q-198 0 -314 83.5t-118 219.5h233q5 -60 56.5 -92.5t146.5 -32.5q144 0 202 63.5t60 202.5l2 125q-116 -162 -313 -162 q-200 0 -316 136.5t-116 377.5zM307 469q0 -151 68 -233t192 -82q115 0 189.5 87.5t74.5 235.5t-69 229.5t-191 81.5q-123 0 -193.5 -84.5t-70.5 -234.5z" />
<glyph unicode="h" d="M150 0v1550h204v-757q65 99 153 143.5t214 44.5q214 0 297 -133q22 -34 33 -81t12.5 -83t1.5 -109v-575h-219v487q0 69 -4.5 114t-16.5 85.5t-35 63t-60 35t-91 12.5q-158 0 -229 -107q-27 -39 -35 -97t-8 -161v-432h-217z" />
<glyph unicode="i" horiz-adv-x="536" d="M131 1358q0 56 40 95.5t97 39.5t96 -38.5t39 -96.5t-39 -97.5t-96 -39.5t-97 40.5t-40 96.5zM160 0v948h217v-948h-217z" />
<glyph unicode="j" horiz-adv-x="536" d="M131 1358q0 56 40 95.5t97 39.5t96 -38.5t39 -96.5t-39 -97.5t-96 -39.5t-97 40.5t-40 96.5zM160 -446v1394h217v-1394h-217z" />
<glyph unicode="k" horiz-adv-x="1056" d="M150 0v1550h217v-995l397 393h268l-430 -418l471 -530h-280l-426 489v-489h-217z" />
<glyph unicode="l" horiz-adv-x="536" d="M160 0v1550h217v-1550h-217z" />
<glyph unicode="m" horiz-adv-x="1792" d="M150 0v948h204v-155q65 99 146.5 144.5t195.5 45.5q220 0 295 -188q74 97 158 142.5t194 45.5q193 0 273 -135q35 -58 35 -197v-651h-217v487q0 69 -3.5 113.5t-14.5 86t-31 64t-53.5 35.5t-82.5 13q-135 0 -186 -87t-51 -280v-432h-219v487q0 168 -40 240t-149 72 q-64 0 -117 -29t-84 -80q-17 -29 -25.5 -72.5t-9.5 -76t-1 -109.5v-432h-217z" />
<glyph unicode="n" d="M150 0v948h204v-155q65 99 153 143.5t214 44.5q214 0 297 -133q22 -34 33 -81t12.5 -83t1.5 -109v-575h-219v487q0 69 -4.5 114t-16.5 85.5t-35 63t-60 35t-91 12.5q-158 0 -229 -107q-27 -39 -35 -97t-8 -161v-432h-217z" />
<glyph unicode="o" d="M80 473q0 214 153 361q73 71 168 109t199 38q218 0 371 -150t153 -358q0 -215 -151 -360q-158 -152 -373 -152q-103 0 -198 39t-169 111q-153 150 -153 362zM309 471q0 -133 85.5 -224t207.5 -91q121 0 207 91.5t86 223.5q0 133 -85.5 224t-207.5 91t-207.5 -91 t-85.5 -224z" />
<glyph unicode="p" horiz-adv-x="1191" d="M150 -446v1394h217v-155q38 91 121 139.5t200 48.5q188 0 306 -139t118 -367q0 -241 -116 -377.5t-316 -136.5q-197 0 -313 162v-569h-217zM360 477q0 -149 74.5 -236t192.5 -87q123 0 190.5 81.5t67.5 233.5q0 150 -70.5 234.5t-193.5 84.5q-122 0 -191.5 -81.5 t-69.5 -229.5z" />
<glyph unicode="q" horiz-adv-x="1191" d="M80 475q0 227 118.5 366.5t307.5 139.5q117 0 199 -48.5t120 -139.5v155h217v-1394h-217v569q-116 -162 -313 -162q-200 0 -316 136.5t-116 377.5zM307 469q0 -151 68 -233t192 -82q118 0 191 86.5t73 236.5q0 148 -69 229.5t-191 81.5q-123 0 -193.5 -84.5t-70.5 -234.5 z" />
<glyph unicode="r" horiz-adv-x="753" d="M150 0v950h217v-153q35 94 92 139t143 45q93 0 178 -43l-78 -184q-55 39 -133 39q-112 0 -157 -89.5t-45 -287.5v-416h-217z" />
<glyph unicode="s" horiz-adv-x="872" d="M41 172l180 98q42 -145 213 -145q73 0 114.5 34t41.5 91q0 28 -9.5 48.5t-34 36t-44.5 24.5t-65 25.5t-72 27.5q-143 60 -208 124t-65 162q0 125 98.5 205t264.5 80q111 0 189 -41t114 -115l-154 -106q-17 45 -59.5 71.5t-98.5 26.5q-63 0 -100 -29t-37 -79q0 -22 9 -40 t22 -30.5t40 -25.5t48 -21t62 -23t69 -26q128 -51 186 -115.5t58 -165.5q0 -140 -101.5 -221.5t-285.5 -81.5q-272 0 -375 211z" />
<glyph unicode="t" horiz-adv-x="620" d="M35 758v190h166v359h217v-359h166v-190h-166v-758h-217v758h-166z" />
<glyph unicode="u" d="M143 479v469h217v-534q0 -135 56 -196.5t186 -61.5t186 61.5t56 196.5v534h217v-469q0 -269 -107.5 -393.5t-349.5 -124.5q-246 0 -353.5 124t-107.5 394z" />
<glyph unicode="v" horiz-adv-x="966" d="M-14 948h237l207 -477q20 -44 53 -172q18 85 56 172l206 477h236l-498 -1005z" />
<glyph unicode="w" horiz-adv-x="1536" d="M-14 948h231l213 -456q29 -68 47 -193q2 74 49 172l232 512h18l236 -512q42 -89 45 -172q18 112 55 190l209 459h229l-493 -1005l-219 493q-46 105 -70 189q-44 -128 -66 -181l-225 -501z" />
<glyph unicode="x" horiz-adv-x="927" d="M-25 0l359 510l-307 438h239l133 -196q41 -59 66 -115q25 52 67 117l132 194h237l-307 -440l356 -508h-237l-176 250q-60 88 -74 129q-38 -74 -76 -131l-172 -248h-240z" />
<glyph unicode="y" horiz-adv-x="964" d="M2 948h240l174 -491q31 -86 45 -187q15 58 67 172l234 506h235l-684 -1394h-223l260 528z" />
<glyph unicode="z" horiz-adv-x="919" d="M-2 0l528 758h-475v190h828l-517 -758h517v-190h-881z" />
<glyph unicode="{" horiz-adv-x="1024" d="M162 442v179q7 0 21.5 -1.5t21.5 -1.5q127 0 179 59.5t52 201.5v247q0 128 19.5 195.5t83.5 105.5q50 29 117.5 39.5t172.5 10.5h45v-179q-8 0 -24 1t-23 1q-115 0 -150.5 -44.5t-35.5 -170.5v-241q0 -147 -41 -215.5t-162 -98.5q121 -30 162 -99t41 -214v-240 q0 -65 7 -103t27.5 -65.5t56.5 -38t97 -10.5q7 0 22 1t23 1v-176h-63q-189 0 -272 49q-63 37 -83 105t-20 194v248q0 142 -51.5 202t-179.5 60q-7 0 -21.5 -1t-21.5 -1z" />
<glyph unicode="|" horiz-adv-x="1024" d="M424 -483v2048h178v-2048h-178z" />
<glyph unicode="}" horiz-adv-x="1024" d="M152 -238q8 0 23 -1t22 -1q116 0 151 45t35 172v240q0 145 42 214t163 99q-122 29 -163.5 98.5t-41.5 215.5v241q0 126 -35 170.5t-149 44.5q-7 0 -23 -1t-24 -1v179h45q104 0 171.5 -10.5t116.5 -39.5q64 -38 83.5 -106t19.5 -195v-247q0 -142 51.5 -201.5t179.5 -59.5 q6 0 21 1.5t22 1.5v-179q-7 0 -21.5 1t-21.5 1q-128 0 -179.5 -60t-51.5 -202v-248q0 -127 -19.5 -194t-83.5 -105q-48 -29 -115.5 -39t-172.5 -10h-45v176z" />
<glyph unicode="~" horiz-adv-x="1705" d="M178 434v187q210 143 387 143q122 0 293 -59q12 -4 48.5 -17t51 -18t45.5 -14.5t51 -13.5t46.5 -7.5t50.5 -3.5q166 0 379 153v-184q-204 -141 -381 -141q-91 0 -191 35q-19 6 -79.5 27t-85.5 28.5t-71.5 20.5t-83.5 17.5t-75 4.5q-160 0 -385 -158z" />
<glyph unicode="&#xa1;" horiz-adv-x="673" d="M205 1368q0 54 38 91.5t93 37.5t93 -37.5t38 -91.5q0 -56 -37.5 -93.5t-93.5 -37.5q-54 0 -92.5 38.5t-38.5 92.5zM223 -39v1163h228v-1163h-228z" />
<glyph unicode="&#xa2;" horiz-adv-x="1236" d="M186 735q0 195 116.5 325t320.5 161v161h104v-157q126 -3 266 -60v-204q-111 70 -266 83v-598q179 27 266 97v-209q-115 -66 -266 -72v-203h-104v207q-196 15 -316.5 145.5t-120.5 323.5zM383 750q0 -123 63.5 -203.5t176.5 -100.5v596q-107 -19 -173.5 -100t-66.5 -192z " />
<glyph unicode="&#xa3;" horiz-adv-x="1236" d="M74 49q117 175 262 187q47 92 47 178q0 83 -47 172h-250v141h188q-90 149 -90 299q0 197 136.5 325t361.5 128q211 0 331.5 -114t139.5 -329l-223 -30q-9 138 -75 209t-183 71q-112 0 -182 -69.5t-70 -180.5q0 -18 2 -36.5t8 -42.5t9.5 -38.5t15 -46t16 -43t20 -51.5 t19.5 -51h358v-141h-313q16 -52 16 -109q0 -137 -96 -241h6q65 0 138 -22.5t138 -45.5t111 -23q69 0 123.5 28t83.5 79l133 -119q-47 -85 -125 -130.5t-174 -45.5q-77 0 -167.5 24t-174.5 48t-143 24q-112 0 -219 -104z" />
<glyph unicode="&#xa4;" horiz-adv-x="1236" d="M0 543l25 110h133q-2 25 -2 68q0 10 4 80h-160l25 112h147q47 262 216.5 414t408.5 152q192 0 354 -131v-242q-140 166 -336 166q-149 0 -259 -97.5t-140 -261.5h583l-34 -112h-568q-4 -62 -4 -101v-12q0 -15 2 -35h523l-37 -110h-471q32 -175 138.5 -275t254.5 -100 q183 0 356 156l-8 -244q-166 -119 -369 -119q-235 0 -402 156t-212 426h-168z" />
<glyph unicode="&#xa5;" horiz-adv-x="1236" d="M0 1452h240l307 -494q22 -35 61 -120q24 68 62 127l315 487h229l-266 -420h256v-145h-350l-102 -164h452v-145h-493v-578h-219v578h-482v145h445l-101 164h-344v145h256z" />
<glyph unicode="&#xa6;" horiz-adv-x="1024" d="M424 -350v758h178v-758h-178zM424 674v758h178v-758h-178z" />
<glyph unicode="&#xa7;" horiz-adv-x="1089" d="M84 539q0 129 68 223.5t194 144.5q-180 82 -180 271q0 147 103.5 234t291.5 87q173 0 266 -86.5t93 -249.5v-20h-187q-6 182 -186 182q-80 0 -129 -41t-49 -102q0 -65 56 -105.5t200 -97.5q103 -41 171.5 -80.5t118.5 -92t72.5 -119t22.5 -155.5q0 -280 -275 -360 q94 -44 145.5 -120t51.5 -169q0 -153 -104.5 -243.5t-290.5 -90.5q-174 0 -278.5 94t-104.5 248v21h202q6 -182 187 -182q89 0 139.5 41t50.5 108q0 15 -3.5 29t-7 25t-14 22.5t-17.5 19t-24.5 18t-27 16.5t-33.5 17t-35.5 16t-41.5 17.5t-44 18.5q-112 48 -176 81t-100 68 q-125 119 -125 312zM301 537q0 -108 74 -182t176 -74q103 0 177.5 74.5t74.5 181.5t-74.5 182.5t-177.5 75.5t-176.5 -75t-73.5 -183z" />
<glyph unicode="&#xa8;" horiz-adv-x="1024" d="M209 1255q0 48 36 83.5t85 35.5q50 0 84.5 -35t34.5 -84q0 -54 -33 -88t-86 -34q-51 0 -86 35t-35 87zM573 1255q0 48 36 83.5t85 35.5q50 0 84.5 -35t34.5 -84q0 -54 -33 -88t-86 -34q-51 0 -86 35t-35 87z" />
<glyph unicode="&#xa9;" horiz-adv-x="1705" d="M113 731q0 146 57.5 281t163.5 243q212 215 518 215q309 0 526 -217q105 -105 160 -238.5t55 -283.5q0 -152 -54.5 -285.5t-158.5 -234.5q-109 -107 -245 -164t-283 -57q-146 0 -280 56.5t-240 162.5t-162.5 240.5t-56.5 281.5zM223 731q0 -257 187 -444q91 -91 205 -139 t239 -48q257 0 449 189q182 179 182 442q0 128 -46.5 243t-135.5 204q-184 184 -449 184t-444 -182q-91 -92 -139 -208t-48 -241zM457 725q0 209 110 332t291 123q147 0 243 -77t105 -200h-166q-10 73 -60 113.5t-130 40.5q-97 0 -154 -85t-57 -241q0 -153 58 -235t163 -82 q79 0 129 43.5t60 124.5h165q-8 -134 -106.5 -216.5t-253.5 -82.5q-182 0 -289.5 118.5t-107.5 323.5z" />
<glyph unicode="&#xaa;" horiz-adv-x="894" d="M59 1133q0 160 89.5 257t230.5 97q88 0 149.5 -34t89.5 -97v108h164v-663h-164v86q-85 -113 -233 -113q-150 0 -238 95.5t-88 263.5zM231 1128q0 -105 51 -163t144 -58q87 0 143 62t56 166t-52 160.5t-145 56.5q-92 0 -144.5 -59t-52.5 -165z" />
<glyph unicode="&#xab;" horiz-adv-x="929" d="M80 469l254 408l137 -84l-205 -324l205 -324l-137 -84zM459 469l254 408l139 -84l-207 -324l207 -324l-139 -84z" />
<glyph unicode="&#xac;" horiz-adv-x="1705" d="M254 696v166h1198v-502h-166v336h-1032z" />
<glyph unicode="&#xad;" horiz-adv-x="829" d="M147 371v200h535v-200h-535z" />
<glyph unicode="&#xae;" horiz-adv-x="1705" d="M113 731q0 148 58 285t165 244q210 210 516 210q312 0 530 -221q211 -214 211 -518q0 -313 -217 -524q-108 -105 -243.5 -161t-280.5 -56q-147 0 -282.5 57.5t-241.5 165.5q-104 106 -159.5 239t-55.5 279zM223 731q0 -256 183 -442q91 -91 204.5 -140t233.5 -49 q265 0 456 185q89 86 137 199t48 237q0 270 -180 453q-188 188 -451 188q-260 0 -440 -180q-92 -94 -141.5 -210.5t-49.5 -240.5zM551 330v829h319q173 0 262 -57.5t89 -167.5q0 -91 -48 -150t-137 -79l185 -375h-199l-164 346h-129v-346h-178zM729 786h117q99 0 145.5 30 t46.5 97q0 70 -49 102t-151 32h-109v-261z" />
<glyph unicode="&#xaf;" horiz-adv-x="1024" d="M248 1153v141h526v-141h-526z" />
<glyph unicode="&#xb0;" horiz-adv-x="673" d="M43 1163q0 124 86 210.5t209 86.5q122 0 208.5 -87t86.5 -210q0 -121 -86.5 -208t-210.5 -87q-123 0 -208 85.5t-85 209.5zM152 1165q0 -77 55 -131.5t131 -54.5q77 0 130.5 55t53.5 131q0 77 -54 131t-130 54q-77 0 -131.5 -54.5t-54.5 -130.5z" />
<glyph unicode="&#xb1;" horiz-adv-x="1705" d="M254 14v168h1198v-168h-1198zM254 707v165h514v334h170v-334h514v-165h-514v-334h-170v334h-514z" />
<glyph unicode="&#xb2;" horiz-adv-x="817" d="M29 575l360 394q129 141 129 231q0 65 -42.5 102t-115.5 37q-66 0 -109.5 -37t-47.5 -98h-152q0 117 87.5 187.5t234.5 70.5q140 0 220.5 -64.5t80.5 -178.5q0 -94 -56 -178t-186 -222l-125 -129h369v-115h-647z" />
<glyph unicode="&#xb3;" horiz-adv-x="817" d="M61 811h152v-8q0 -60 45.5 -96.5t122.5 -36.5q89 0 136.5 40t47.5 115q0 158 -196 158h-29v115q4 0 14 -1t15 -1q172 0 172 129q0 57 -40 90t-106 33q-70 0 -109.5 -30.5t-41.5 -86.5h-142q6 111 83 171t214 60q133 0 211 -63t78 -170q0 -80 -44 -132.5t-122 -62.5 q91 -15 140 -73t49 -154q0 -117 -89.5 -185.5t-246.5 -68.5q-139 0 -224.5 69.5t-89.5 188.5z" />
<glyph unicode="&#xb4;" horiz-adv-x="1024" d="M371 1092l190 272h225l-292 -272h-123z" />
<glyph unicode="&#xb5;" horiz-adv-x="1208" d="M-92 -430l297 1511h229l-125 -635q-12 -58 -12 -104q0 -97 46.5 -147t135.5 -50q125 0 195.5 91t109.5 290l109 555h225l-145 -739q-19 -100 -19 -133q0 -35 15.5 -50.5t52.5 -15.5q23 0 35 2l-33 -159q-67 -17 -150 -17q-149 0 -149 125v15q-41 -67 -108.5 -104.5 t-145.5 -37.5q-79 0 -136 25.5t-99 83.5l-99 -506h-229z" />
<glyph unicode="&#xb6;" horiz-adv-x="1024" d="M55 1130q0 156 106 252.5t285 96.5h523v-99h-117v-1380h-129v1380h-170v-1380h-129v784q-170 6 -269.5 101t-99.5 245z" />
<glyph unicode="&#xb7;" horiz-adv-x="618" d="M178 721q0 55 38 93t93 38t93 -38t38 -93q0 -54 -38 -92.5t-93 -38.5t-93 38.5t-38 92.5z" />
<glyph unicode="&#xb8;" horiz-adv-x="1024" d="M274 -287q154 -37 242 -37q102 0 102 68q0 39 -32 56.5t-101 17.5q-7 0 -20.5 -1t-20.5 -1v184h86v-86h17q223 0 223 -174q0 -82 -61 -127t-177 -45q-101 0 -258 39v106z" />
<glyph unicode="&#xb9;" horiz-adv-x="817" d="M158 1333l61 113h281v-871h-142v758h-200z" />
<glyph unicode="&#xba;" horiz-adv-x="903" d="M59 1133q0 146 117 251q112 103 275 103q164 0 278 -105q115 -106 115 -249q0 -148 -115 -254q-117 -105 -278 -105t-275 105q-117 105 -117 254zM231 1130q0 -93 64.5 -157t157.5 -64q90 0 154.5 64t64.5 157t-64 157.5t-155 64.5q-93 0 -157.5 -64.5t-64.5 -157.5z" />
<glyph unicode="&#xbb;" horiz-adv-x="929" d="M82 145l205 324l-205 324l137 84l254 -408l-254 -408zM459 145l207 324l-207 324l139 84l254 -408l-254 -408z" />
<glyph unicode="&#xbc;" horiz-adv-x="1900" d="M150 1339l57 105h270v-811h-137v706h-190zM438 -39l887 1518h137l-887 -1518h-137zM1139 166l536 661h43v-567h113v-94h-113v-166h-137v166h-442zM1352 260h229v213q0 35 4 80z" />
<glyph unicode="&#xbd;" horiz-adv-x="1900" d="M150 1339l57 105h270v-811h-137v706h-190zM438 -39l887 1518h137l-887 -1518h-137zM1149 0l344 367q125 134 125 215q0 61 -40.5 96t-111.5 35q-63 0 -104 -34.5t-47 -92.5h-144q0 110 83.5 175.5t224.5 65.5q133 0 209.5 -60.5t76.5 -166.5q0 -88 -54.5 -168.5 t-176.5 -204.5l-117 -121h350v-106h-618z" />
<glyph unicode="&#xbe;" horiz-adv-x="1900" d="M59 852h144v-6q0 -57 43.5 -91t118.5 -34q84 0 129 37.5t45 107.5q0 148 -187 148q-4 0 -13.5 -1t-14.5 -1v108q5 0 13.5 -1t12.5 -1q166 0 166 121q0 53 -37 84t-100 31q-69 0 -107 -28.5t-41 -82.5h-135q8 105 81 161t204 56q128 0 202 -58.5t74 -158.5 q0 -75 -42 -123.5t-117 -58.5q88 -14 134 -68t46 -145q0 -107 -85.5 -172.5t-234.5 -65.5q-132 0 -214 66t-85 176zM438 -39l887 1518h137l-887 -1518h-137zM1139 166l536 661h43v-567h113v-94h-113v-166h-137v166h-442zM1352 260h229v213q0 35 4 80z" />
<glyph unicode="&#xbf;" horiz-adv-x="1114" d="M193 305q0 66 17 116t56 90.5t86 70.5t123 67q125 63 158 88q60 47 61 109q0 50 -38.5 87.5t-94.5 37.5q-67 0 -103 -40.5t-38 -115.5h-178v21q0 148 83 228.5t236 80.5q143 0 234.5 -84t91.5 -211q0 -68 -19.5 -120.5t-62.5 -95.5t-95 -75.5t-135 -71.5 q-105 -49 -148.5 -87t-43.5 -103q0 -66 47.5 -110t120.5 -44q82 0 128 53t46 148h172q0 -6 1 -18.5t1 -18.5q0 -159 -94.5 -252.5t-253.5 -93.5q-164 0 -261 94t-97 250zM449 1368q0 54 38 91.5t93 37.5t93 -37.5t38 -91.5t-38.5 -92.5t-92.5 -38.5q-56 0 -93.5 37.5 t-37.5 93.5z" />
<glyph unicode="&#xc0;" horiz-adv-x="1355" d="M-31 0l709 1522l708 -1522h-251l-166 377h-580l-170 -377h-250zM403 1880h226l190 -272h-123zM477 575h408l-150 334q-30 72 -55 166q-22 -90 -53 -166z" />
<glyph unicode="&#xc1;" horiz-adv-x="1355" d="M-31 0l709 1522l708 -1522h-251l-166 377h-580l-170 -377h-250zM477 575h408l-150 334q-30 72 -55 166q-22 -90 -53 -166zM537 1608l190 272h225l-293 -272h-122z" />
<glyph unicode="&#xc2;" horiz-adv-x="1355" d="M-31 0l709 1522l708 -1522h-251l-166 377h-580l-170 -377h-250zM381 1608l192 272h209l193 -272h-123l-174 157l-174 -157h-123zM477 575h408l-150 334q-30 72 -55 166q-22 -90 -53 -166z" />
<glyph unicode="&#xc3;" horiz-adv-x="1355" d="M-31 0l709 1522l708 -1522h-251l-166 377h-580l-170 -377h-250zM385 1624q46 209 188 209q31 0 62 -8l117 -31q16 -4 47 -4q64 0 82 68h90q-19 -100 -70.5 -154.5t-124.5 -54.5q-26 0 -53 6l-125 33q-24 4 -37 4q-67 0 -86 -68h-90zM477 575h408l-150 334q-30 72 -55 166 q-22 -90 -53 -166z" />
<glyph unicode="&#xc4;" horiz-adv-x="1355" d="M-31 0l709 1522l708 -1522h-251l-166 377h-580l-170 -377h-250zM375 1772q0 47 36 82.5t85 35.5q50 0 84 -34t34 -84q0 -54 -33 -88.5t-85 -34.5q-51 0 -86 35.5t-35 87.5zM477 575h408l-150 334q-30 72 -55 166q-22 -90 -53 -166zM739 1772q0 47 36 82.5t85 35.5 q50 0 84.5 -34.5t34.5 -83.5q0 -54 -33.5 -88.5t-85.5 -34.5q-51 0 -86 35.5t-35 87.5z" />
<glyph unicode="&#xc5;" horiz-adv-x="1355" d="M-31 0l684 1464h52l681 -1464h-251l-166 377h-580l-170 -377h-250zM442 1735q0 99 69 168t167 69t167.5 -69.5t69.5 -167.5q0 -99 -68.5 -167.5t-168.5 -68.5t-168 68t-68 168zM477 575h408l-150 334q-30 72 -55 166q-22 -90 -53 -166zM565 1735q0 -47 34 -80t81 -33 t81 33.5t34 79.5q0 47 -34 80.5t-81 33.5t-81 -33.5t-34 -80.5z" />
<glyph unicode="&#xc6;" horiz-adv-x="1865" d="M-31 0l684 1464h676l84 -202h-536l129 -359h491l78 -209h-490l179 -481h538l80 -213h-772l-139 377h-582l-170 -377h-250zM477 575h422l-123 334q-48 128 -71 244q-20 -103 -74 -223z" />
<glyph unicode="&#xc7;" horiz-adv-x="1470" d="M104 729q0 161 57.5 302.5t166.5 248.5q222 219 555 219q257 0 473 -151l-13 -240q-202 172 -450 172q-241 0 -391 -154t-150 -399q0 -239 147 -392t369 -153q258 0 473 185v-269q-192 -137 -454 -137q-341 0 -561 217q-107 106 -164.5 248.5t-57.5 302.5zM631 -287 q154 -37 241 -37q103 0 103 68q0 39 -32 56.5t-101 17.5q-7 0 -20.5 -1t-20.5 -1v184h86v-86h16q223 0 223 -174q0 -83 -60.5 -127.5t-176.5 -44.5q-101 0 -258 39v106z" />
<glyph unicode="&#xc8;" horiz-adv-x="1089" d="M168 0v1464h817v-202h-579v-367h579v-209h-579v-473h579v-213h-817zM305 1880h225l191 -272h-123z" />
<glyph unicode="&#xc9;" horiz-adv-x="1089" d="M168 0v1464h817v-202h-579v-367h579v-209h-579v-473h579v-213h-817zM438 1608l191 272h225l-293 -272h-123z" />
<glyph unicode="&#xca;" horiz-adv-x="1089" d="M168 0v1464h817v-202h-579v-367h579v-209h-579v-473h579v-213h-817zM283 1608l192 272h209l193 -272h-123l-174 157l-174 -157h-123z" />
<glyph unicode="&#xcb;" horiz-adv-x="1089" d="M168 0v1464h817v-202h-579v-367h579v-209h-579v-473h579v-213h-817zM276 1772q0 47 36 82.5t85 35.5q50 0 84.5 -34.5t34.5 -83.5q0 -54 -33.5 -88.5t-85.5 -34.5q-51 0 -86 35.5t-35 87.5zM641 1772q0 47 36 82.5t85 35.5q50 0 84.5 -34.5t34.5 -83.5q0 -54 -33.5 -88.5 t-85.5 -34.5q-51 0 -86 35.5t-35 87.5z" />
<glyph unicode="&#xcc;" horiz-adv-x="583" d="M18 1880h226l190 -272h-123zM172 0v1464h238v-1464h-238z" />
<glyph unicode="&#xcd;" horiz-adv-x="583" d="M152 1608l190 272h225l-293 -272h-122zM172 0v1464h238v-1464h-238z" />
<glyph unicode="&#xce;" horiz-adv-x="583" d="M-4 1608l192 272h209l193 -272h-123l-174 157l-174 -157h-123zM172 0v1464h238v-1464h-238z" />
<glyph unicode="&#xcf;" horiz-adv-x="583" d="M-10 1772q0 47 36 82.5t85 35.5t83.5 -34t34.5 -84q0 -54 -33 -88.5t-85 -34.5q-51 0 -86 35.5t-35 87.5zM172 0v1464h238v-1464h-238zM354 1772q0 47 36 82.5t85 35.5q50 0 84.5 -34.5t34.5 -83.5q0 -54 -33.5 -88.5t-85.5 -34.5q-51 0 -86 35.5t-35 87.5z" />
<glyph unicode="&#xd0;" horiz-adv-x="1529" d="M0 723v184h182v557h322q107 0 160 -1t137.5 -8t137 -20.5t114.5 -40.5t114 -67q126 -97 192 -248.5t66 -347.5q0 -396 -258 -594q-61 -47 -128 -76t-150 -41.5t-148.5 -16t-173.5 -3.5h-385v723h-182zM420 215h201q143 0 231.5 18t159.5 78q166 141 166 422t-166 422 q-74 61 -168 78.5t-252 17.5h-172v-344h387v-184h-387v-508z" />
<glyph unicode="&#xd1;" horiz-adv-x="1644" d="M168 0v1522l930 -895q72 -69 159 -178v1015h220v-1521l-949 911q-75 72 -141 164v-1018h-219zM530 1624q46 209 189 209q30 0 61 -8l117 -31q16 -4 47 -4q64 0 82 68h90q-19 -100 -70 -154.5t-124 -54.5q-27 0 -54 6l-125 33q-24 4 -36 4q-67 0 -86 -68h-91z" />
<glyph unicode="&#xd2;" horiz-adv-x="1773" d="M104 729q0 322 228 545q113 109 255 166t300 57q322 0 553 -223q112 -110 170.5 -249.5t58.5 -295.5q0 -157 -58.5 -295.5t-170.5 -247.5q-113 -109 -255 -167t-298 -58q-157 0 -301 58t-254 167q-228 220 -228 543zM352 729q0 -228 156 -387q157 -160 379 -160 q220 0 377 160t157 387q0 229 -157 389q-74 77 -172.5 118.5t-204.5 41.5t-204.5 -41t-174.5 -119q-156 -159 -156 -389zM612 1880h226l190 -272h-123z" />
<glyph unicode="&#xd3;" horiz-adv-x="1773" d="M104 729q0 322 228 545q113 109 255 166t300 57q322 0 553 -223q112 -110 170.5 -249.5t58.5 -295.5q0 -157 -58.5 -295.5t-170.5 -247.5q-113 -109 -255 -167t-298 -58q-157 0 -301 58t-254 167q-228 220 -228 543zM352 729q0 -228 156 -387q157 -160 379 -160 q220 0 377 160t157 387q0 229 -157 389q-74 77 -172.5 118.5t-204.5 41.5t-204.5 -41t-174.5 -119q-156 -159 -156 -389zM745 1608l191 272h225l-293 -272h-123z" />
<glyph unicode="&#xd4;" horiz-adv-x="1773" d="M104 729q0 322 228 545q113 109 255 166t300 57q322 0 553 -223q112 -110 170.5 -249.5t58.5 -295.5q0 -157 -58.5 -295.5t-170.5 -247.5q-113 -109 -255 -167t-298 -58q-157 0 -301 58t-254 167q-228 220 -228 543zM352 729q0 -228 156 -387q157 -160 379 -160 q220 0 377 160t157 387q0 229 -157 389q-74 77 -172.5 118.5t-204.5 41.5t-204.5 -41t-174.5 -119q-156 -159 -156 -389zM590 1608l192 272h209l193 -272h-123l-174 157l-174 -157h-123z" />
<glyph unicode="&#xd5;" horiz-adv-x="1773" d="M104 729q0 322 228 545q113 109 255 166t300 57q322 0 553 -223q112 -110 170.5 -249.5t58.5 -295.5q0 -157 -58.5 -295.5t-170.5 -247.5q-113 -109 -255 -167t-298 -58q-157 0 -301 58t-254 167q-228 220 -228 543zM352 729q0 -228 156 -387q157 -160 379 -160 q220 0 377 160t157 387q0 229 -157 389q-74 77 -172.5 118.5t-204.5 41.5t-204.5 -41t-174.5 -119q-156 -159 -156 -389zM594 1624q46 209 188 209q31 0 62 -8l117 -31q16 -4 47 -4q64 0 82 68h90q-19 -100 -70.5 -154.5t-124.5 -54.5q-26 0 -53 6l-125 33q-24 4 -37 4 q-67 0 -86 -68h-90z" />
<glyph unicode="&#xd6;" horiz-adv-x="1773" d="M104 729q0 322 228 545q113 109 255 166t300 57q322 0 553 -223q112 -110 170.5 -249.5t58.5 -295.5q0 -157 -58.5 -295.5t-170.5 -247.5q-113 -109 -255 -167t-298 -58q-157 0 -301 58t-254 167q-228 220 -228 543zM352 729q0 -228 156 -387q157 -160 379 -160 q220 0 377 160t157 387q0 229 -157 389q-74 77 -172.5 118.5t-204.5 41.5t-204.5 -41t-174.5 -119q-156 -159 -156 -389zM584 1772q0 47 36 82.5t85 35.5t83.5 -34t34.5 -84q0 -54 -33 -88.5t-85 -34.5q-51 0 -86 35.5t-35 87.5zM948 1772q0 47 36 82.5t85 35.5 q50 0 84.5 -34.5t34.5 -83.5q0 -54 -33.5 -88.5t-85.5 -34.5q-51 0 -86 35.5t-35 87.5z" />
<glyph unicode="&#xd7;" horiz-adv-x="1705" d="M287 152l458 458l-458 461l116 117l459 -459l461 459l117 -117l-459 -461l459 -458l-117 -119l-461 461l-459 -461z" />
<glyph unicode="&#xd8;" horiz-adv-x="1773" d="M104 731q0 156 58 295.5t170 247.5q110 109 253.5 167t301.5 58q227 0 454 -145l172 184l129 -104l-176 -189q203 -225 203 -514q0 -156 -58.5 -295.5t-170.5 -247.5q-110 -107 -253.5 -165t-299.5 -58q-259 0 -473 156l-181 -195l-124 109l184 196q-189 212 -189 500z M352 731q0 -183 105 -323l727 778q-131 94 -297 94q-107 0 -206 -41.5t-173 -118.5q-156 -159 -156 -389zM571 289q132 -105 301 -105q237 0 394 160q155 158 155 387q0 194 -118 342z" />
<glyph unicode="&#xd9;" horiz-adv-x="1523" d="M162 553v911h235v-889q0 -397 365 -397q364 0 364 397v889h238v-911q0 -592 -602 -592q-600 0 -600 592zM487 1880h226l190 -272h-123z" />
<glyph unicode="&#xda;" horiz-adv-x="1523" d="M162 553v911h235v-889q0 -397 365 -397q364 0 364 397v889h238v-911q0 -592 -602 -592q-600 0 -600 592zM621 1608l190 272h225l-293 -272h-122z" />
<glyph unicode="&#xdb;" horiz-adv-x="1523" d="M162 553v911h235v-889q0 -397 365 -397q364 0 364 397v889h238v-911q0 -592 -602 -592q-600 0 -600 592zM465 1608l192 272h209l193 -272h-123l-174 157l-174 -157h-123z" />
<glyph unicode="&#xdc;" horiz-adv-x="1523" d="M162 553v911h235v-889q0 -397 365 -397q364 0 364 397v889h238v-911q0 -592 -602 -592q-600 0 -600 592zM459 1772q0 47 36 82.5t85 35.5q50 0 84 -34t34 -84q0 -54 -33 -88.5t-85 -34.5q-51 0 -86 35.5t-35 87.5zM823 1772q0 47 36 82.5t85 35.5q50 0 84.5 -34.5 t34.5 -83.5q0 -54 -33.5 -88.5t-85.5 -34.5q-51 0 -86 35.5t-35 87.5z" />
<glyph unicode="&#xdd;" horiz-adv-x="1214" d="M-10 1464h250l307 -497q22 -37 61 -117q26 69 62 123l315 491h238l-504 -794v-670h-236v670zM467 1608l190 272h226l-293 -272h-123z" />
<glyph unicode="&#xde;" horiz-adv-x="1089" d="M168 0v1464h223v-301h115q100 0 153.5 -3t120.5 -20.5t115 -52.5q68 -50 107.5 -136t39.5 -191t-39.5 -192.5t-107.5 -137.5q-67 -48 -149 -61t-218 -13h-137v-356h-223zM391 551h76q72 0 119.5 4t90.5 15.5t67.5 33t38.5 56.5t14 85q0 126 -76.5 169.5t-253.5 43.5h-76 v-407z" />
<glyph unicode="&#xdf;" horiz-adv-x="1232" d="M47 743v205h117v234q0 171 121.5 280t320.5 109q194 0 309 -106.5t115 -280.5q0 -252 -276 -334q190 -9 292.5 -119t102.5 -301q0 -224 -120 -346.5t-345 -122.5q-103 0 -172 39v193q64 -31 135 -31q132 0 203.5 74.5t71.5 212.5q0 288 -340 288h-35v201q6 0 17 -1t16 -1 q107 0 165 55.5t58 155.5q0 113 -53 172t-152 59q-57 0 -96.5 -15.5t-63 -42t-36.5 -73.5t-17 -97.5t-4 -127.5v-1022h-217v743h-117z" />
<glyph unicode="&#xe0;" horiz-adv-x="1191" d="M80 475q0 227 118.5 366.5t307.5 139.5q117 0 199 -48.5t120 -139.5v155h217v-948h-217v123q-116 -162 -313 -162q-200 0 -316 136.5t-116 377.5zM307 469q0 -151 68 -233t192 -82q115 0 189.5 87.5t74.5 235.5t-69 229.5t-191 81.5q-123 0 -193.5 -84.5t-70.5 -234.5z M332 1364h225l191 -272h-123z" />
<glyph unicode="&#xe1;" horiz-adv-x="1191" d="M80 475q0 227 118.5 366.5t307.5 139.5q117 0 199 -48.5t120 -139.5v155h217v-948h-217v123q-116 -162 -313 -162q-200 0 -316 136.5t-116 377.5zM307 469q0 -151 68 -233t192 -82q115 0 189.5 87.5t74.5 235.5t-69 229.5t-191 81.5q-123 0 -193.5 -84.5t-70.5 -234.5z M465 1092l190 272h226l-293 -272h-123z" />
<glyph unicode="&#xe2;" horiz-adv-x="1191" d="M80 475q0 227 118.5 366.5t307.5 139.5q117 0 199 -48.5t120 -139.5v155h217v-948h-217v123q-116 -162 -313 -162q-200 0 -316 136.5t-116 377.5zM307 469q0 -151 68 -233t192 -82q115 0 189.5 87.5t74.5 235.5t-69 229.5t-191 81.5q-123 0 -193.5 -84.5t-70.5 -234.5z M309 1092l193 272h209l192 -272h-123l-174 157l-174 -157h-123z" />
<glyph unicode="&#xe3;" horiz-adv-x="1191" d="M80 475q0 227 118.5 366.5t307.5 139.5q117 0 199 -48.5t120 -139.5v155h217v-948h-217v123q-116 -162 -313 -162q-200 0 -316 136.5t-116 377.5zM307 469q0 -151 68 -233t192 -82q115 0 189.5 87.5t74.5 235.5t-69 229.5t-191 81.5q-123 0 -193.5 -84.5t-70.5 -234.5z M313 1108q46 209 189 209q30 0 61 -8l117 -31q16 -4 47 -4q64 0 82 67h90q-19 -100 -70 -154t-124 -54q-27 0 -54 6l-125 32q-30 5 -37 5q-67 0 -86 -68h-90z" />
<glyph unicode="&#xe4;" horiz-adv-x="1191" d="M80 475q0 227 118.5 366.5t307.5 139.5q117 0 199 -48.5t120 -139.5v155h217v-948h-217v123q-116 -162 -313 -162q-200 0 -316 136.5t-116 377.5zM303 1255q0 48 36 83.5t85 35.5q50 0 84.5 -35t34.5 -84q0 -54 -33 -88t-86 -34q-51 0 -86 35t-35 87zM307 469 q0 -151 68 -233t192 -82q115 0 189.5 87.5t74.5 235.5t-69 229.5t-191 81.5q-123 0 -193.5 -84.5t-70.5 -234.5zM668 1255q0 48 35.5 83.5t84.5 35.5q50 0 84.5 -35t34.5 -84q0 -54 -33 -88t-86 -34q-51 0 -85.5 35t-34.5 87z" />
<glyph unicode="&#xe5;" horiz-adv-x="1191" d="M80 475q0 227 118.5 366.5t307.5 139.5q117 0 199 -48.5t120 -139.5v155h217v-948h-217v123q-116 -162 -313 -162q-200 0 -316 136.5t-116 377.5zM307 469q0 -151 68 -233t192 -82q115 0 189.5 87.5t74.5 235.5t-69 229.5t-191 81.5q-123 0 -193.5 -84.5t-70.5 -234.5z M330 1284q0 100 69 169t168 69q98 0 167 -70t69 -168t-69 -166.5t-167 -68.5q-100 0 -168.5 67.5t-68.5 167.5zM455 1284q0 -47 32.5 -80t79.5 -33t81 33.5t34 79.5q0 47 -34 81t-81 34t-79.5 -33.5t-32.5 -81.5z" />
<glyph unicode="&#xe6;" horiz-adv-x="1765" d="M70 293q0 142 102 228.5t268 86.5q170 0 285 -69q2 12 2 36q0 108 -70 165t-206 57q-144 0 -297 -97v203q140 80 305 80q139 0 229.5 -38t153.5 -130q123 168 354 168q229 0 357 -132.5t128 -371.5v-37h-757q8 -134 79 -210t189 -76q103 0 173.5 45.5t123.5 144.5 l182 -102q-158 -283 -475 -283q-120 0 -206 37.5t-148 118.5q-67 -74 -168.5 -115t-224.5 -41q-175 0 -277 92t-102 240zM295 297q0 -65 53.5 -103t147.5 -38q115 0 177 38.5t62 104.5q0 64 -58.5 103.5t-160.5 39.5q-103 0 -162 -39t-59 -106zM938 588h518 q-12 103 -76.5 156t-177.5 53q-212 0 -264 -209z" />
<glyph unicode="&#xe7;" horiz-adv-x="929" d="M80 471q0 228 145.5 369t380.5 141q146 0 252 -59v-244q-104 113 -260 113q-132 0 -212.5 -86t-80.5 -228q0 -149 81 -233t222 -84q156 0 250 119v-250q-121 -68 -274 -68q-223 0 -363.5 142t-140.5 368zM317 -287q154 -37 242 -37q103 0 103 68q0 39 -32.5 56.5 t-101.5 17.5q-7 0 -20.5 -1t-20.5 -1v184h86v-86h17q223 0 223 -174q0 -82 -61 -127t-177 -45q-101 0 -258 39v106z" />
<glyph unicode="&#xe8;" horiz-adv-x="1138" d="M80 471q0 223 139 366.5t359 143.5q229 0 357 -131t128 -367v-41h-758q7 -133 78 -207.5t190 -74.5q104 0 174.5 44t122.5 142l183 -102q-158 -283 -475 -283q-227 0 -362.5 139t-135.5 371zM303 1364h225l191 -272h-123zM319 588h519q-12 102 -77.5 155.5t-178.5 53.5 q-211 0 -263 -209z" />
<glyph unicode="&#xe9;" horiz-adv-x="1138" d="M80 471q0 223 139 366.5t359 143.5q229 0 357 -131t128 -367v-41h-758q7 -133 78 -207.5t190 -74.5q104 0 174.5 44t122.5 142l183 -102q-158 -283 -475 -283q-227 0 -362.5 139t-135.5 371zM319 588h519q-12 102 -77.5 155.5t-178.5 53.5q-211 0 -263 -209zM436 1092 l191 272h225l-293 -272h-123z" />
<glyph unicode="&#xea;" horiz-adv-x="1138" d="M80 471q0 223 139 366.5t359 143.5q229 0 357 -131t128 -367v-41h-758q7 -133 78 -207.5t190 -74.5q104 0 174.5 44t122.5 142l183 -102q-158 -283 -475 -283q-227 0 -362.5 139t-135.5 371zM281 1092l192 272h209l192 -272h-122l-174 157l-175 -157h-122zM319 588h519 q-12 102 -77.5 155.5t-178.5 53.5q-211 0 -263 -209z" />
<glyph unicode="&#xeb;" horiz-adv-x="1138" d="M80 471q0 223 139 366.5t359 143.5q229 0 357 -131t128 -367v-41h-758q7 -133 78 -207.5t190 -74.5q104 0 174.5 44t122.5 142l183 -102q-158 -283 -475 -283q-227 0 -362.5 139t-135.5 371zM274 1255q0 48 36 83.5t85 35.5t84 -35t35 -84q0 -54 -33 -88t-86 -34 q-51 0 -86 35t-35 87zM319 588h519q-12 102 -77.5 155.5t-178.5 53.5q-211 0 -263 -209zM639 1255q0 48 36 83.5t85 35.5q50 0 84.5 -35t34.5 -84q0 -54 -33 -88t-86 -34q-51 0 -86 35t-35 87z" />
<glyph unicode="&#xec;" horiz-adv-x="536" d="M-6 1364h225l191 -272h-123zM160 0v948h217v-948h-217z" />
<glyph unicode="&#xed;" horiz-adv-x="536" d="M127 1092l190 272h226l-293 -272h-123zM160 0v948h217v-948h-217z" />
<glyph unicode="&#xee;" horiz-adv-x="536" d="M-29 1092l193 272h209l192 -272h-123l-174 157l-174 -157h-123zM160 0v948h217v-948h-217z" />
<glyph unicode="&#xef;" horiz-adv-x="536" d="M-35 1255q0 48 36 83.5t85 35.5q50 0 84.5 -35t34.5 -84q0 -54 -33 -88t-86 -34q-51 0 -86 35t-35 87zM160 0v948h217v-948h-217zM330 1255q0 48 36 83.5t85 35.5t83.5 -34.5t34.5 -84.5q0 -54 -33 -88t-85 -34q-51 0 -86 35t-35 87z" />
<glyph unicode="&#xf0;" d="M80 449q0 198 153 339q143 134 355 134q152 0 276 -109q-100 218 -248 332l-290 -135l-60 116l240 111q-79 61 -236 147l109 160q229 -136 328 -217l317 143l59 -114l-268 -123q152 -147 230.5 -326.5t78.5 -376.5q0 -264 -142.5 -416.5t-381.5 -152.5q-103 0 -198.5 37 t-170.5 106q-73 67 -112 156.5t-39 188.5zM309 442q0 -119 85 -202.5t208 -83.5q121 0 207 83.5t86 202.5q0 120 -85 203.5t-208 83.5q-124 0 -208.5 -83.5t-84.5 -203.5z" />
<glyph unicode="&#xf1;" d="M150 0v948h204v-155q65 99 153 143.5t214 44.5q214 0 297 -133q22 -34 33 -81t12.5 -83t1.5 -109v-575h-219v487q0 69 -4.5 114t-16.5 85.5t-35 63t-60 35t-91 12.5q-158 0 -229 -107q-27 -39 -35 -97t-8 -161v-432h-217zM326 1108q46 209 188 209q30 0 61 -8l117 -31 q16 -4 47 -4q64 0 82 67h90q-19 -100 -70 -154t-124 -54q-26 0 -53 6l-125 32q-30 5 -37 5q-67 0 -86 -68h-90z" />
<glyph unicode="&#xf2;" d="M80 473q0 214 153 361q73 71 168 109t199 38q218 0 371 -150t153 -358q0 -215 -151 -360q-158 -152 -373 -152q-103 0 -198 39t-169 111q-153 150 -153 362zM309 471q0 -133 85.5 -224t207.5 -91q121 0 207 91.5t86 223.5q0 133 -85.5 224t-207.5 91t-207.5 -91 t-85.5 -224zM328 1364h225l190 -272h-122z" />
<glyph unicode="&#xf3;" d="M80 473q0 214 153 361q73 71 168 109t199 38q218 0 371 -150t153 -358q0 -215 -151 -360q-158 -152 -373 -152q-103 0 -198 39t-169 111q-153 150 -153 362zM309 471q0 -133 85.5 -224t207.5 -91q121 0 207 91.5t86 223.5q0 133 -85.5 224t-207.5 91t-207.5 -91 t-85.5 -224zM461 1092l190 272h226l-293 -272h-123z" />
<glyph unicode="&#xf4;" d="M80 473q0 214 153 361q73 71 168 109t199 38q218 0 371 -150t153 -358q0 -215 -151 -360q-158 -152 -373 -152q-103 0 -198 39t-169 111q-153 150 -153 362zM305 1092l193 272h209l192 -272h-123l-174 157l-174 -157h-123zM309 471q0 -133 85.5 -224t207.5 -91 q121 0 207 91.5t86 223.5q0 133 -85.5 224t-207.5 91t-207.5 -91t-85.5 -224z" />
<glyph unicode="&#xf5;" d="M80 473q0 214 153 361q73 71 168 109t199 38q218 0 371 -150t153 -358q0 -215 -151 -360q-158 -152 -373 -152q-103 0 -198 39t-169 111q-153 150 -153 362zM309 471q0 -133 85.5 -224t207.5 -91q121 0 207 91.5t86 223.5q0 133 -85.5 224t-207.5 91t-207.5 -91 t-85.5 -224zM309 1108q46 209 189 209q30 0 61 -8l117 -31q16 -4 47 -4q64 0 82 67h90q-19 -100 -70.5 -154t-124.5 -54q-26 0 -53 6l-125 32q-30 5 -37 5q-67 0 -86 -68h-90z" />
<glyph unicode="&#xf6;" d="M80 473q0 214 153 361q73 71 168 109t199 38q218 0 371 -150t153 -358q0 -215 -151 -360q-158 -152 -373 -152q-103 0 -198 39t-169 111q-153 150 -153 362zM299 1255q0 48 36 83.5t85 35.5q50 0 84.5 -35t34.5 -84q0 -54 -33 -88t-86 -34q-51 0 -86 35t-35 87zM309 471 q0 -133 85.5 -224t207.5 -91q121 0 207 91.5t86 223.5q0 133 -85.5 224t-207.5 91t-207.5 -91t-85.5 -224zM664 1255q0 48 35.5 83.5t84.5 35.5q50 0 84.5 -35t34.5 -84q0 -54 -33 -88t-86 -34q-51 0 -85.5 35t-34.5 87z" />
<glyph unicode="&#xf7;" horiz-adv-x="1705" d="M254 528v166h1198v-166h-1198zM717 229q0 57 40.5 97.5t96.5 40.5q57 0 97 -40.5t40 -97.5q0 -56 -39.5 -95.5t-97.5 -39.5t-97.5 39t-39.5 96zM717 989q0 57 40.5 98t96.5 41q57 0 97 -41t40 -98q0 -56 -39.5 -95.5t-97.5 -39.5t-97.5 39t-39.5 96z" />
<glyph unicode="&#xf8;" d="M70 29l125 127q-113 146 -113 313q0 223 149.5 368.5t376.5 145.5q190 0 318 -113l125 127l84 -79l-127 -130q114 -146 114 -315q0 -144 -69 -261.5t-190 -184t-269 -66.5q-187 0 -313 111l-131 -125zM305 475q0 -84 45 -170l428 418q-72 63 -166 63q-132 0 -219.5 -89.5 t-87.5 -221.5zM424 217q75 -57 170 -57q130 0 215.5 86.5t85.5 218.5q0 87 -45 170z" />
<glyph unicode="&#xf9;" d="M143 479v469h217v-534q0 -135 56 -196.5t186 -61.5t186 61.5t56 196.5v534h217v-469q0 -269 -107.5 -393.5t-349.5 -124.5q-246 0 -353.5 124t-107.5 394zM328 1364h225l190 -272h-122z" />
<glyph unicode="&#xfa;" d="M143 479v469h217v-534q0 -135 56 -196.5t186 -61.5t186 61.5t56 196.5v534h217v-469q0 -269 -107.5 -393.5t-349.5 -124.5q-246 0 -353.5 124t-107.5 394zM461 1092l190 272h226l-293 -272h-123z" />
<glyph unicode="&#xfb;" d="M143 479v469h217v-534q0 -135 56 -196.5t186 -61.5t186 61.5t56 196.5v534h217v-469q0 -269 -107.5 -393.5t-349.5 -124.5q-246 0 -353.5 124t-107.5 394zM305 1092l193 272h209l192 -272h-123l-174 157l-174 -157h-123z" />
<glyph unicode="&#xfc;" d="M143 479v469h217v-534q0 -135 56 -196.5t186 -61.5t186 61.5t56 196.5v534h217v-469q0 -269 -107.5 -393.5t-349.5 -124.5q-246 0 -353.5 124t-107.5 394zM299 1255q0 48 36 83.5t85 35.5q50 0 84.5 -35t34.5 -84q0 -54 -33 -88t-86 -34q-51 0 -86 35t-35 87zM664 1255 q0 48 35.5 83.5t84.5 35.5q50 0 84.5 -35t34.5 -84q0 -54 -33 -88t-86 -34q-51 0 -85.5 35t-34.5 87z" />
<glyph unicode="&#xfd;" horiz-adv-x="964" d="M2 948h240l174 -491q31 -86 45 -187q15 58 67 172l234 506h235l-684 -1394h-223l260 528zM342 1092l190 272h226l-293 -272h-123z" />
<glyph unicode="&#xfe;" horiz-adv-x="1191" d="M150 -446v1996h217v-757q38 91 121 139.5t200 48.5q188 0 306 -139t118 -367q0 -241 -116 -377.5t-316 -136.5q-197 0 -313 162v-569h-217zM360 477q0 -149 74.5 -236t192.5 -87q123 0 190.5 81.5t67.5 233.5q0 150 -70.5 234.5t-193.5 84.5q-122 0 -191.5 -81.5 t-69.5 -229.5z" />
<glyph unicode="&#xff;" horiz-adv-x="964" d="M2 948h240l174 -491q31 -86 45 -187q15 58 67 172l234 506h235l-684 -1394h-223l260 528zM180 1255q0 48 36 83.5t85 35.5t84 -35t35 -84q0 -54 -33 -88t-86 -34q-51 0 -86 35t-35 87zM545 1255q0 48 36 83.5t85 35.5t83.5 -34.5t34.5 -84.5q0 -54 -33 -88t-85 -34 q-51 0 -86 35t-35 87z" />
<glyph unicode="&#x152;" horiz-adv-x="2304" d="M109 731q0 156 58 295t167 248t248.5 167t294.5 58q319 0 528 -252l2 217h788v-202h-569v-361h569v-209h-569v-479h569v-213h-788l-2 225q-94 -126 -229.5 -193t-298.5 -67q-155 0 -294.5 57t-248.5 166t-167 248t-58 295zM352 731q0 -227 154 -387t371 -160 q216 0 370 160t154 387q0 229 -154 389q-75 78 -171 119t-199 41q-217 0 -371 -160t-154 -389z" />
<glyph unicode="&#x153;" horiz-adv-x="1943" d="M80 473q0 207 149 356q155 152 383 152q253 0 389 -201q126 201 375 201q229 0 357.5 -131t128.5 -367v-41h-758q8 -134 79 -210t189 -76q103 0 173.5 45.5t123.5 144.5l182 -102q-158 -283 -475 -283q-128 0 -220.5 44.5t-162.5 141.5q-168 -186 -387 -186 q-143 0 -264 70q-126 72 -194 187t-68 255zM307 471q0 -133 85.5 -224t207.5 -91q121 0 208 91.5t87 223.5q0 133 -86.5 224t-208.5 91t-207.5 -91t-85.5 -224zM1118 588h518q-12 103 -76.5 156t-177.5 53q-212 0 -264 -209z" />
<glyph unicode="&#x178;" horiz-adv-x="1214" d="M-10 1464h250l307 -497q22 -37 61 -117q26 69 62 123l315 491h238l-504 -794v-670h-236v670zM305 1772q0 47 36 82.5t85 35.5q50 0 84.5 -34.5t34.5 -83.5q0 -54 -33.5 -88.5t-85.5 -34.5q-51 0 -86 35.5t-35 87.5zM670 1772q0 47 36 82.5t85 35.5t83.5 -34t34.5 -84 q0 -54 -33 -88.5t-85 -34.5q-51 0 -86 35.5t-35 87.5z" />
<glyph unicode="&#x2c6;" horiz-adv-x="1024" d="M215 1092l193 272h208l193 -272h-123l-174 157l-174 -157h-123z" />
<glyph unicode="&#x2dc;" horiz-adv-x="1024" d="M219 1108q46 209 189 209q30 0 61 -8l117 -31q16 -4 47 -4q64 0 82 67h90q-19 -100 -70.5 -154t-124.5 -54q-26 0 -53 6l-125 32q-30 5 -37 5q-67 0 -86 -68h-90z" />
<glyph unicode="&#x2000;" horiz-adv-x="986" />
<glyph unicode="&#x2001;" horiz-adv-x="1972" />
<glyph unicode="&#x2002;" horiz-adv-x="986" />
<glyph unicode="&#x2003;" horiz-adv-x="1972" />
<glyph unicode="&#x2004;" horiz-adv-x="657" />
<glyph unicode="&#x2005;" horiz-adv-x="493" />
<glyph unicode="&#x2006;" horiz-adv-x="328" />
<glyph unicode="&#x2007;" horiz-adv-x="328" />
<glyph unicode="&#x2008;" horiz-adv-x="246" />
<glyph unicode="&#x2009;" horiz-adv-x="394" />
<glyph unicode="&#x200a;" horiz-adv-x="109" />
<glyph unicode="&#x2010;" horiz-adv-x="829" d="M147 371v200h535v-200h-535z" />
<glyph unicode="&#x2011;" horiz-adv-x="829" d="M147 371v200h535v-200h-535z" />
<glyph unicode="&#x2012;" horiz-adv-x="829" d="M147 371v200h535v-200h-535z" />
<glyph unicode="&#x2013;" horiz-adv-x="1024" d="M0 399v146h1024v-146h-1024z" />
<glyph unicode="&#x2014;" horiz-adv-x="2048" d="M0 399v146h2048v-146h-2048z" />
<glyph unicode="&#x2018;" horiz-adv-x="618" d="M123 969l246 528l127 -45l-191 -545z" />
<glyph unicode="&#x2019;" horiz-adv-x="618" d="M123 954l190 543l183 -59l-246 -531z" />
<glyph unicode="&#x201a;" horiz-adv-x="618" d="M123 -299l190 545l183 -60l-246 -530z" />
<glyph unicode="&#x201c;" horiz-adv-x="905" d="M84 969l246 528l127 -45l-189 -545zM449 969l245 528l127 -45l-190 -545z" />
<glyph unicode="&#x201d;" horiz-adv-x="905" d="M84 954l190 543l183 -59l-246 -531zM449 954l190 543l182 -59l-246 -531z" />
<glyph unicode="&#x201e;" horiz-adv-x="905" d="M84 -299l190 545l183 -60l-246 -530zM449 -299l190 545l182 -60l-246 -530z" />
<glyph unicode="&#x2022;" horiz-adv-x="1208" d="M307 762q0 123 87 209t210 86q122 0 208.5 -86t86.5 -209q0 -122 -87 -209.5t-210 -87.5t-209 87t-86 210z" />
<glyph unicode="&#x2026;" horiz-adv-x="2048" d="M211 111q0 56 38 94.5t93 38.5t93 -38.5t38 -94.5q0 -54 -38 -91.5t-93 -37.5t-93 37.5t-38 91.5zM893 111q0 56 38 94.5t93 38.5t93 -38.5t38 -94.5q0 -54 -38 -91.5t-93 -37.5t-93 37.5t-38 91.5zM1577 111q0 56 38 94.5t93 38.5t93 -38.5t38 -94.5q0 -54 -38 -91.5 t-93 -37.5t-93 37.5t-38 91.5z" />
<glyph unicode="&#x202f;" horiz-adv-x="394" />
<glyph unicode="&#x2039;" horiz-adv-x="626" d="M80 469l254 408l139 -84l-207 -324l207 -324l-139 -84z" />
<glyph unicode="&#x203a;" horiz-adv-x="544" d="M80 145l207 324l-207 324l139 84l254 -408l-254 -408z" />
<glyph unicode="&#x205f;" horiz-adv-x="493" />
<glyph unicode="&#x20ac;" horiz-adv-x="1236" d="M0 543l25 110h133q-2 25 -2 68q0 10 4 80h-160l25 112h147q47 262 216.5 414t408.5 152q192 0 354 -131v-242q-140 166 -336 166q-149 0 -259 -97.5t-140 -261.5h583l-34 -112h-568q-4 -62 -4 -101v-12q0 -15 2 -35h523l-37 -110h-471q32 -175 138.5 -275t254.5 -100 q183 0 356 156l-8 -244q-166 -119 -369 -119q-235 0 -402 156t-212 426h-168z" />
<glyph unicode="&#x2122;" horiz-adv-x="1705" d="M225 1366v94h467v-94h-168v-448h-129v448h-170zM809 918v542h170l141 -360l133 360h170v-542h-114v428l-160 -428h-59l-166 428v-428h-115z" />
<glyph unicode="&#x25fc;" horiz-adv-x="952" d="M0 0v952h952v-952h-952z" />
<glyph unicode="&#xfb01;" horiz-adv-x="1150" d="M14 758v190h166v254q0 188 78.5 278.5t243.5 90.5q68 0 147 -21v-196q-52 30 -106 30q-80 0 -113 -49.5t-33 -160.5v-226h228v-190h-228v-758h-217v758h-166zM748 1358q0 56 40 95.5t97 39.5t96 -38.5t39 -96.5t-39 -97.5t-96 -39.5t-97 40.5t-40 96.5zM774 0v948h219 v-948h-219z" />
<glyph unicode="&#xfb02;" horiz-adv-x="1150" d="M14 758v190h166v254q0 188 78.5 278.5t243.5 90.5q68 0 147 -21v-196q-52 30 -106 30q-80 0 -113 -49.5t-33 -160.5v-226h228v-190h-228v-758h-217v758h-166zM774 0v1550h219v-1550h-219z" />
</font>
</defs>
</svg>
