<?xml version="1.0" encoding="utf-8"?>
<!-- Generator: Adobe Illustrator 16.0.0, SVG Export Plug-In . SVG Version: 6.00 Build 0)  -->
<!DOCTYPE svg PUBLIC "-//W3C//DTD SVG 1.1//EN" "http://www.w3.org/Graphics/SVG/1.1/DTD/svg11.dtd">
<svg version="1.1" id="Layer_10" xmlns="http://www.w3.org/2000/svg" xmlns:xlink="http://www.w3.org/1999/xlink" x="0px" y="0px"
	 width="100px" height="100px" viewBox="0 0 100 100" enable-background="new 0 0 100 100" xml:space="preserve">
<path d="M81.016,85.425c0,3.507-2.852,6.36-6.359,6.36H25.346c-3.51,0-6.361-2.854-6.361-6.36c0-0.34,0.063-0.678,0.184-0.996
	l17.08-44.761c0.006-0.071,0.016-0.142,0.025-0.212V13.807h-2.018c-1.545,0-2.795-1.252-2.795-2.796s1.25-2.796,2.795-2.796h4.813
	c1.545,0,2.797,1.252,2.797,2.796v28.661c0,0.161-0.014,0.32-0.041,0.479c0,0.341-0.082,0.8-0.205,1.117L31.332,68.229h37.096
	L57.799,41.298c-0.115-0.29-0.18-0.597-0.193-0.907l-0.023-0.169c-0.012-0.11-0.018-0.22-0.018-0.33V11.011
	c0-1.544,1.25-2.796,2.795-2.796h4.939c1.545,0,2.795,1.252,2.795,2.796s-1.25,2.796-2.795,2.796h-2.145V39.64L80.82,84.398
	C80.949,84.726,81.016,85.073,81.016,85.425z M44.584,61.999c0-1.156,0.939-2.097,2.096-2.097s2.098,0.94,2.098,2.097
	c0,1.155-0.941,2.097-2.098,2.097S44.584,63.154,44.584,61.999z M45.98,61.999c0,0.385,0.314,0.698,0.699,0.698
	s0.699-0.313,0.699-0.698c0-0.386-0.314-0.699-0.699-0.699S45.98,61.613,45.98,61.999z M55.416,59.902
	c0-1.156,0.941-2.097,2.098-2.097s2.096,0.94,2.096,2.097c0,1.155-0.939,2.097-2.096,2.097S55.416,61.058,55.416,59.902z
	 M56.814,59.902c0,0.385,0.314,0.698,0.699,0.698s0.699-0.313,0.699-0.698c0-0.386-0.314-0.699-0.699-0.699
	S56.814,59.517,56.814,59.902z M49.59,52.913c0-1.606,1.307-2.913,2.914-2.913c1.605,0,2.912,1.307,2.912,2.913
	c0,1.605-1.307,2.913-2.912,2.913C50.896,55.826,49.59,54.519,49.59,52.913z M50.988,52.913c0,0.835,0.68,1.515,1.516,1.515
	c0.834,0,1.516-0.68,1.516-1.515c0-0.836-0.682-1.516-1.516-1.516C51.668,51.397,50.988,52.077,50.988,52.913z"/>
</svg>
